<svg width="22" height="23" viewBox="0 0 22 23" fill="none" xmlns="http://www.w3.org/2000/svg">
<path d="M22 11.5778C21.9998 9.47573 21.3972 7.41771 20.2636 5.64743C19.1302 3.87715 17.513 2.46872 15.6039 1.58892C13.6948 0.709104 11.5736 0.394748 9.49131 0.683063C7.40908 0.971367 5.45305 1.85028 3.85481 3.21573C2.25656 4.58117 1.08303 6.37598 0.473145 8.38766C-0.13674 10.3993 -0.15744 12.5436 0.413497 14.5667C0.984435 16.5898 2.1231 18.407 3.69469 19.8029C5.26627 21.199 7.20497 22.1156 9.28126 22.444V14.7578H6.48817V11.5778H9.28126V9.15416C9.28126 6.39775 10.9239 4.87425 13.4356 4.87425C14.2607 4.88608 15.0839 4.95777 15.8987 5.08875V7.79658H14.5109C14.0931 7.74113 13.6703 7.85385 13.3357 8.10997C13.001 8.3661 12.7818 8.74466 12.7261 9.16242C12.7103 9.2794 12.7079 9.39779 12.7188 9.51533V11.5778H15.7667L15.279 14.7578H12.7123V22.444C15.301 22.0361 17.6591 20.7173 19.3617 18.7252C21.0645 16.733 22.0001 14.1985 22 11.5778Z" fill="white"/>
</svg>
