<svg width="32" height="32" viewBox="0 0 32 32" fill="none" xmlns="http://www.w3.org/2000/svg">
<g clip-path="url(#clip0_323_332)">
<path fill-rule="evenodd" clip-rule="evenodd" d="M13.3223 31.5162C13.8329 31.9684 14.6382 31.6059 14.6382 30.924V21.9169C14.6382 21.6976 14.5471 21.4881 14.3868 21.3385L9.10981 16.4132C8.7662 16.0925 8.77628 15.5448 9.13147 15.237L14.3652 10.7011C14.5385 10.5508 14.6382 10.3327 14.6382 10.1032V1.07618C14.6382 0.400214 13.8453 0.035538 13.332 0.475453L0.514456 11.4619C0.339094 11.6123 0.238159 11.8317 0.238159 12.0627V19.5712C0.238159 19.7977 0.335222 20.0133 0.50476 20.1635L13.3223 31.5162ZM16.6953 30.924C16.6953 31.606 17.5006 31.9684 18.0111 31.5162L30.8287 20.1635C30.9982 20.0133 31.0953 19.7977 31.0953 19.5713V12.0627C31.0953 11.8317 30.9944 11.6123 30.819 11.462L18.0014 0.475479C17.4881 0.0355554 16.6953 0.400231 16.6953 1.07621V10.1032C16.6953 10.3327 16.7949 10.5509 16.9684 10.7011L22.202 15.237C22.5572 15.5448 22.5672 16.0925 22.2237 16.4133L16.9466 21.3385C16.7863 21.4881 16.6953 21.6976 16.6953 21.9169V30.924Z" fill="#FDDD35"/>
</g>
<defs>
<clipPath id="clip0_323_332">
<rect width="32" height="32" fill="white"/>
</clipPath>
</defs>
</svg>
