<svg width="23" height="25" viewBox="0 0 23 25" fill="none" xmlns="http://www.w3.org/2000/svg">
<path fill-rule="evenodd" clip-rule="evenodd" d="M6.68356 2.11213C7.85689 2.05103 8.23578 2.05103 11.218 2.05103C14.2002 2.05103 14.5791 2.05103 15.7647 2.11213C16.6754 2.13179 17.5763 2.30533 18.4291 2.62539C19.9009 3.20773 21.0591 4.38347 21.6191 5.86381C21.9392 6.71655 22.1128 7.61727 22.1325 8.52788C22.1936 9.70104 22.1936 10.0799 22.1936 13.0617C22.1936 14.8796 22.1708 15.7119 22.1531 16.3615C22.1418 16.7775 22.1325 17.1185 22.1325 17.5955C22.1128 18.506 21.9392 19.4068 21.6191 20.2596C21.0479 21.7355 19.8809 22.9024 18.4047 23.4735C17.5518 23.7936 16.6509 23.9672 15.7402 23.9869C14.5669 24.0478 14.188 24.0478 11.2061 24.0478C9.3879 24.0478 8.55522 24.0252 7.90548 24.0075C7.48952 23.9961 7.1484 23.9869 6.67134 23.9869C5.76061 23.9672 4.85976 23.7936 4.00691 23.4735C2.52824 22.8997 1.36081 21.7279 0.792461 20.2473C0.472357 19.3946 0.298799 18.4938 0.279129 17.5833C0.218018 16.4101 0.218018 16.0313 0.218018 13.0495C0.218018 10.0677 0.218018 9.68883 0.279129 8.50344C0.298799 7.59283 0.472357 6.69211 0.792461 5.83937C1.36643 4.36092 2.53828 3.19366 4.01913 2.62539C4.87198 2.30533 5.77283 2.13179 6.68356 2.11213ZM15.6676 4.09346C14.5065 4.03236 14.1521 4.03236 11.2188 4.03236V4.05681C9.40929 4.05681 8.58225 4.07986 7.94427 4.09765C7.54372 4.10881 7.21771 4.11791 6.76989 4.11791C6.07289 4.12686 5.38255 4.25499 4.72878 4.49675C3.78388 4.86938 3.03592 5.61723 2.66322 6.562C2.42144 7.21569 2.2933 7.90591 2.28433 8.60281C2.22322 9.76377 2.22322 10.1059 2.22322 13.0511C2.22322 14.8603 2.24628 15.6872 2.26408 16.3251C2.27525 16.7256 2.28433 17.0516 2.28433 17.4993C2.2933 18.1962 2.42144 18.8864 2.66322 19.5402C3.03592 20.4849 3.78388 21.2327 4.72878 21.6054C5.38255 21.8471 6.07289 21.9753 6.76989 21.9842C7.931 22.0454 8.27321 22.0454 11.2188 22.0454C13.0283 22.0454 13.8553 22.0223 14.4932 22.0045C14.8939 21.9933 15.2198 21.9842 15.6676 21.9842C16.3647 21.9753 17.055 21.8471 17.7088 21.6054C18.6537 21.2327 19.4017 20.4849 19.7743 19.5402C20.0161 18.8864 20.1443 18.1962 20.1532 17.4993C20.2143 16.3384 20.2143 15.9962 20.2143 13.0511C20.2143 11.2418 20.1912 10.4149 20.1735 9.77704C20.1622 9.37655 20.1532 9.05059 20.1532 8.60281C20.1443 7.90591 20.0161 7.21569 19.7743 6.562C19.4017 5.61723 18.6537 4.86938 17.7088 4.49675C17.0565 4.24665 16.366 4.11024 15.6676 4.09346Z" fill="white"/>
<path fill-rule="evenodd" clip-rule="evenodd" d="M5.57007 13.0482C5.57007 9.93008 8.09816 7.40234 11.2167 7.40234C12.7143 7.40234 14.1505 7.99717 15.2095 9.05599C16.2684 10.1148 16.8634 11.5508 16.8634 13.0482C16.8634 16.1663 14.3353 18.6941 11.2167 18.6941C8.09816 18.6941 5.57007 16.1663 5.57007 13.0482ZM7.5514 13.0492C7.5514 15.0742 9.19303 16.7158 11.2181 16.7158C12.1905 16.7158 13.1231 16.3296 13.8108 15.6418C14.4984 14.9542 14.8847 14.0216 14.8847 13.0492C14.8847 11.0241 13.2432 9.38249 11.2181 9.38249C9.19303 9.38249 7.5514 11.0241 7.5514 13.0492Z" fill="white"/>
<path fill-rule="evenodd" clip-rule="evenodd" d="M16.82 7.54039C17.5489 7.54039 18.14 6.94941 18.14 6.22039C18.14 5.49137 17.5489 4.90039 16.82 4.90039C16.0909 4.90039 15.5 5.49137 15.5 6.22039C15.5 6.94941 16.0909 7.54039 16.82 7.54039Z" fill="white"/>
</svg>
