<svg width="28" height="28" viewBox="0 0 28 28" fill="none" xmlns="http://www.w3.org/2000/svg">
<path fill-rule="evenodd" clip-rule="evenodd" d="M11.657 27.5767C12.1038 27.9724 12.8084 27.6552 12.8084 27.0585V19.1773C12.8084 18.9854 12.7287 18.8021 12.5884 18.6712L7.97107 14.3616C7.67041 14.081 7.67923 13.6017 7.99002 13.3324L12.5695 9.3635C12.7212 9.23201 12.8084 9.04112 12.8084 8.84033V0.941687C12.8084 0.350218 12.1146 0.0311263 11.6655 0.416052L0.450134 10.0292C0.296692 10.1608 0.208374 10.3528 0.208374 10.5549V17.1248C0.208374 17.323 0.293304 17.5117 0.44165 17.6431L11.657 27.5767ZM14.6084 27.0585C14.6084 27.6553 15.313 27.9724 15.7597 27.5767L26.9751 17.6431C27.1234 17.5117 27.2084 17.323 27.2084 17.1249V10.5549C27.2084 10.3528 27.1201 10.1608 26.9666 10.0293L15.7512 0.416075C15.3021 0.0311415 14.6084 0.350233 14.6084 0.94171V8.84035C14.6084 9.04114 14.6955 9.23203 14.8473 9.36352L19.4267 13.3324C19.7375 13.6017 19.7463 14.081 19.4457 14.3617L14.8283 18.6712C14.688 18.8021 14.6084 18.9854 14.6084 19.1773V27.0585Z" fill="#FDDD35"/>
</svg>
