<svg width="13" height="28" viewBox="0 0 13 28" fill="none" xmlns="http://www.w3.org/2000/svg">
<path fill-rule="evenodd" clip-rule="evenodd" d="M1.55133 27.3285C1.10461 27.7243 0.400024 27.4072 0.400024 26.8105V18.9291C0.400024 18.7853 0.444702 18.6467 0.526062 18.5309C0.553345 18.4921 0.584717 18.456 0.619934 18.423L5.2373 14.1137C5.5379 13.8329 5.52911 13.3537 5.21832 13.0844L0.638916 9.11541C0.487122 8.98382 0.400024 8.79315 0.400024 8.59222V0.693539C0.400024 0.10223 1.09375 -0.216862 1.54285 0.167904L12.7582 9.78119C12.9117 9.91278 13 10.1047 13 10.3068V16.8769C13 17.0749 12.915 17.2636 12.7667 17.395L1.55133 27.3285Z" fill="white"/>
</svg>
