<svg width="17" height="21" viewBox="0 0 17 21" fill="none" xmlns="http://www.w3.org/2000/svg">
<path d="M7.00603 8.00383V11.3818C6.59771 11.2697 6.17046 11.2544 5.75571 11.337C5.34097 11.4196 4.94934 11.5981 4.60966 11.8593C4.26998 12.1204 3.99092 12.4576 3.79304 12.846C3.59515 13.2343 3.4835 13.6639 3.46631 14.1032C3.44307 14.4813 3.49785 14.8603 3.62698 15.2146C3.7561 15.569 3.95659 15.8903 4.21493 16.1574C4.47329 16.4244 4.78353 16.6307 5.12483 16.7624C5.46612 16.8943 5.83056 16.9485 6.19366 16.9216C8.20893 16.9216 8.92099 15.4476 8.92099 14.0651V0.684814H12.1291C12.6748 4.21811 14.371 5.03802 16.6446 5.41697V8.80225C16.6446 8.80225 13.9474 8.60264 12.22 7.24658V13.9342C12.2182 16.9603 10.495 20.3382 6.21785 20.3382C2.24864 20.3382 0.218018 16.8373 0.218018 13.903C0.24334 13.0335 0.445398 12.1795 0.810895 11.3974C1.17638 10.6152 1.69701 9.92249 2.33842 9.36509C2.97984 8.80767 3.72748 8.39812 4.53203 8.16349C5.3366 7.92885 6.17979 7.87444 7.00603 8.00383Z" fill="white"/>
</svg>
