<svg width="23" height="20" viewBox="0 0 23 20" fill="none" xmlns="http://www.w3.org/2000/svg">
<path fill-rule="evenodd" clip-rule="evenodd" d="M20.06 5.53737C20.0684 5.74221 20.0711 5.94698 20.0711 6.15183C20.0711 12.3624 15.4865 19.5322 7.10289 19.5322C4.52759 19.5322 2.13293 18.75 0.115295 17.4185C0.471947 17.4558 0.834161 17.4838 1.20193 17.4838C3.33721 17.4838 5.30389 16.7294 6.8639 15.4631C4.86942 15.4351 3.18529 14.0664 2.60446 12.2041C2.8833 12.26 3.17045 12.288 3.46411 12.288C3.8782 12.288 4.28024 12.2322 4.66561 12.1205C2.5785 11.6922 1.00647 9.79271 1.00647 7.51146C1.00647 7.48352 1.00647 7.47416 1.00647 7.45554C1.62158 7.80005 2.32561 8.0141 3.07318 8.04203C1.84853 7.19471 1.0435 5.75151 1.0435 4.12204C1.0435 3.26541 1.26768 2.45529 1.66232 1.75695C3.90969 4.60619 7.26965 6.47777 11.0576 6.67331C10.9798 6.32879 10.9399 5.96575 10.9399 5.60261C10.9399 3.00478 12.9807 0.900391 15.4986 0.900391C16.8094 0.900391 17.9933 1.46846 18.8242 2.38096C19.8645 2.17611 20.8391 1.78507 21.721 1.24502C21.3792 2.34374 20.6575 3.26536 19.7145 3.84266C20.6371 3.73092 21.5172 3.47971 22.3333 3.10726C21.721 4.0477 20.9503 4.87627 20.06 5.53737Z" fill="white"/>
</svg>
